<svg width="36" height="36" viewBox="0 0 36 36" fill="none" xmlns="http://www.w3.org/2000/svg">
<path d="M9.33331 20V15.2534C9.33331 9.36002 13.5066 6.94669 18.6133 9.89336L22.7333 12.2667L26.8533 14.64C31.96 17.5867 31.96 22.4134 26.8533 25.36L22.7333 27.7334L18.6133 30.1067C13.5066 33.0534 9.33331 30.64 9.33331 24.7467V20Z" fill="#FAEDDC"/>
<path d="M6.33331 17V12.2534C6.33331 6.36002 10.5066 3.94669 15.6133 6.89336L19.7333 9.26669L23.8533 11.64C28.96 14.5867 28.96 19.4134 23.8533 22.36L19.7333 24.7334L15.6133 27.1067C10.5066 30.0534 6.33331 27.64 6.33331 21.7467V17Z" stroke="#B59B79" stroke-width="1.5" stroke-miterlimit="10" stroke-linecap="round" stroke-linejoin="round"/>
</svg>
